PathFileType	4	(X/Y/Z)	C:/Users/opensim2020/Desktop/walking_exp_matlab/subject06_walking13_straight_03.trc	
DataRate	CameraRate	NumFrames	NumMarkers	Units	OrigDataRate	OrigDataStartFrame	OrigNumFrames	
100.00	100.00	8	50	mm	100.00	2293	172	
Frame#	Time	LFHD			RFHD			LBHD			RBHD			C7			T10			CLAV			STRN			RBAK			LSHO			LUPA			LELB			LFRM			LWRA			LWRB			LFIN			RSHO			RUPA			RELB			RFRM			RWRA			RWRB			RFIN			LASI			RASI			LPSI			RPSI			LTHI			LKNE			LTIB			LANK			LHEE			LTOE			RTHI			RKNE			RTIB			RANK			RHEE			RTOE			*39			*40			*41			*42			*43			*44			*45			*46			*47			*48			*49			
		X1	Y1	Z1	X2	Y2	Z2	X3	Y3	Z3	X4	Y4	Z4	X5	Y5	Z5	X6	Y6	Z6	X7	Y7	Z7	X8	Y8	Z8	X9	Y9	Z9	X10	Y10	Z10	X11	Y11	Z11	X12	Y12	Z12	X13	Y13	Z13	X14	Y14	Z14	X15	Y15	Z15	X16	Y16	Z16	X17	Y17	Z17	X18	Y18	Z18	X19	Y19	Z19	X20	Y20	Z20	X21	Y21	Z21	X22	Y22	Z22	X23	Y23	Z23	X24	Y24	Z24	X25	Y25	Z25	X26	Y26	Z26	X27	Y27	Z27	X28	Y28	Z28	X29	Y29	Z29	X30	Y30	Z30	X31	Y31	Z31	X32	Y32	Z32	X33	Y33	Z33	X34	Y34	Z34	X35	Y35	Z35	X36	Y36	Z36	X37	Y37	Z37	X38	Y38	Z38	X39	Y39	Z39	X40	Y40	Z40	X41	Y41	Z41	X42	Y42	Z42	X43	Y43	Z43	X44	Y44	Z44	X45	Y45	Z45	X46	Y46	Z46	X47	Y47	Z47	X48	Y48	Z48	X49	Y49	Z49	X50	Y50	Z50	

108	1.070	-1068.70361	398.60147	1656.23230	-938.75110	380.63980	1641.75842	-1089.00366	263.01215	1614.62158	-961.10156	246.68994	1604.70715	-1038.22205	244.94737	1449.04321	-1034.78992	208.93126	1119.09973	-1026.24365	352.97150	1370.15930	-1034.33679	393.89359	1196.45862	-972.57959	161.37894	1275.83557	-1192.13000	315.33392	1407.73352	-1272.24182	349.61484	1211.30469	-1291.69153	371.92770	1101.40210	-1319.11816	453.97763	976.84863	-1282.57056	561.06256	902.17670	-1316.47168	507.90918	869.88660	-1324.65771	581.90955	819.89783	-870.89484	287.48706	1397.55200	-793.23340	231.96193	1199.16028	-780.56250	235.83052	1076.86572	-761.09393	238.75119	956.71130	-784.17426	286.74884	810.70135	-749.43445	229.42932	818.98560	-743.50922	257.01813	739.00739	-1139.25073	389.03552	961.30402	-918.75409	387.98676	968.28473	-1111.48450	230.91576	986.15607	-943.12274	235.99539	985.03278	-1189.88416	307.71356	644.19562	-1164.67102	291.48029	481.32971	-1149.85120	213.46251	234.91455	-1102.53479	177.93260	66.51101	-1057.43738	134.82841	55.78226	-1099.83240	320.59500	35.07882	-854.98608	430.50595	650.57056	-876.45135	483.80438	536.39740	-882.97949	413.32581	281.17548	-927.62018	371.75732	100.44839	-977.40192	334.11050	81.55651	-912.92523	512.51038	41.79448	-1021.81500	295.37103	1702.28357																														 
109	1.080	-1067.92480	409.44659	1655.13000	-938.00800	391.30511	1640.38184	-1088.48474	273.90482	1613.48572	-960.61261	257.40814	1603.28333	-1038.04541	255.88753	1447.90002	-1034.76965	219.56450	1117.89844	-1026.02222	363.83359	1368.89807	-1034.40161	404.58508	1195.16931	-972.81805	172.07161	1274.80322	-1191.79614	326.24731	1406.78894	-1272.16992	362.15714	1210.96729	-1291.50916	385.41910	1101.35535	-1318.66589	471.02686	979.02905	-1282.01465	580.82794	908.46997	-1315.34204	528.58844	873.91638	-1323.36047	604.25275	826.49249	-870.73572	298.10733	1396.23364	-793.48303	240.36453	1198.43042	-780.86090	242.57352	1076.19312	-761.48077	243.49922	955.88861	-784.27881	289.00174	809.07697	-749.71509	231.67879	818.31250	-743.63348	257.89481	737.88135	-1139.31604	399.37332	959.77856	-918.70020	398.64764	967.13116	-1111.09094	240.64917	984.97382	-942.67133	246.65976	983.89294	-1189.26306	316.03790	643.49994	-1164.21448	297.39920	480.29803	-1149.96777	216.04343	234.89124	-1102.54163	178.26390	66.85479	-1057.43188	135.09679	56.44640	-1099.72314	320.55386	34.71905	-854.83282	440.63779	649.20190	-876.80280	493.11533	534.68982	-883.06848	434.44803	275.95279	-927.41156	404.91794	92.71416	-977.27869	368.63303	71.96132	-911.94727	548.66565	41.03727	-1021.06628	306.10202	1701.04980																														 
110	1.090	-1067.05188	420.35898	1653.91284	-937.20020	401.98715	1638.86951	-1088.01147	284.92722	1612.19727	-960.19482	268.21548	1601.71021	-1037.95874	266.97736	1446.57068	-1034.66345	230.31754	1116.62769	-1025.74609	374.78650	1367.50562	-1034.33521	415.38834	1193.72156	-972.82239	182.29713	1274.16296	-1191.47986	337.25003	1405.67566	-1271.93433	374.55008	1210.36670	-1291.16321	398.97711	1100.95032	-1318.03796	487.73407	981.08496	-1280.89612	599.62524	914.43427	-1314.15076	548.93567	878.02228	-1321.82581	626.25726	833.18994	-870.53613	308.72772	1394.84375	-793.89850	248.55620	1197.58777	-781.34198	249.45634	1075.27332	-761.73206	248.39586	955.12231	-784.17914	291.62845	807.52789	-749.97687	234.25732	817.72638	-743.71625	259.28488	736.86102	-1139.45398	410.06647	958.20044	-918.65222	409.48026	965.87848	-1110.57324	251.08899	983.68427	-942.19800	257.45877	982.64246	-1188.99951	323.67175	642.45410	-1164.13159	303.15076	479.34125	-1150.11145	218.25349	234.99937	-1102.57593	178.48335	67.27306	-1057.34521	135.28862	57.13281	-1099.71606	320.48267	34.41127	-854.68805	450.07468	647.15442	-877.10345	501.65167	532.26526	-883.07483	455.58524	270.88724	-926.99359	438.20517	86.05550	-977.13190	403.27478	63.88211	-911.15710	584.49957	40.84056	-1020.30310	316.84494	1699.63489																														 
111	1.100	-1066.12280	431.33139	1652.65527	-936.38763	412.74011	1637.33691	-1087.47925	295.95889	1610.75171	-959.71167	278.98776	1600.01270	-1037.71240	277.95746	1445.08997	-1034.38037	241.09396	1115.29468	-1025.38379	385.76651	1366.04297	-1034.14099	426.30478	1192.17212	-973.27533	193.76234	1272.12341	-1191.04053	348.24777	1404.41589	-1271.64233	386.89935	1209.59387	-1290.83081	412.19873	1100.38672	-1317.29480	504.13306	983.03845	-1279.75183	618.13257	920.44293	-1312.70776	568.80200	882.01575	-1320.14270	647.56219	839.86420	-870.27814	319.42487	1393.34851	-794.27478	256.70267	1196.70581	-781.58502	256.51920	1074.42322	-761.88934	253.55125	954.32361	-783.84778	294.74472	806.14520	-750.08594	237.21365	817.16028	-743.62372	260.93561	735.83228	-1139.20374	420.54431	956.45721	-918.34497	420.23465	964.24188	-1109.99146	261.66019	982.31281	-941.67920	268.42899	981.29590	-1188.72375	331.35529	641.36249	-1164.28992	308.89542	478.45847	-1150.22852	220.39949	235.27029	-1102.63391	178.81081	67.78825	-1057.39868	135.54829	57.94518	-1099.85156	320.58148	34.27097	-854.61511	458.71124	644.45862	-877.35114	509.57660	529.23529	-883.11694	476.48871	266.21777	-926.45654	471.29993	80.47074	-976.81860	437.55353	57.12712	-910.56586	619.82324	41.50664	-1019.56262	327.74298	1698.12048																														 
112	1.110	-1065.21826	442.39572	1651.19739	-935.52087	423.50250	1635.63684	-1086.92053	307.05261	1609.18518	-959.19995	289.83511	1598.21118	-1037.41443	289.07678	1443.44971	-1033.98022	252.16168	1113.79834	-1025.03430	396.92902	1364.42310	-1033.88477	437.29050	1190.51965	-973.09320	204.09116	1271.11035	-1190.60608	359.26077	1403.02771	-1271.31580	399.04120	1208.60779	-1290.40735	425.16199	1099.60144	-1316.37793	520.19269	984.78912	-1278.57385	636.38055	926.42084	-1311.22546	588.09265	885.98602	-1318.25696	668.26556	846.43024	-869.96423	330.06818	1391.73938	-794.27527	264.87936	1195.82715	-781.63672	263.52457	1073.62915	-761.79639	258.71722	953.55927	-783.35193	298.16016	804.65942	-750.13324	240.53148	816.54462	-743.45605	263.08868	734.84705	-1138.57153	430.87564	954.59991	-917.99231	431.26794	962.55334	-1109.33875	272.64310	980.90417	-940.90729	279.38028	979.79816	-1188.56445	339.08093	640.26666	-1164.25977	314.64566	477.48056	-1150.30603	222.73564	235.41005	-1102.67969	179.19316	68.36492	-1057.42603	135.87601	58.89340	-1099.83801	320.61169	34.01589	-854.55115	466.52939	641.10114	-877.66943	517.17896	525.77716	-883.14044	496.92685	262.08395	-925.85333	503.91422	76.20658	-976.43848	471.35977	51.76823	-910.25848	654.26941	43.37513	-1018.77496	338.60397	1696.48193																														 
113	1.120	-1064.19958	453.45694	1649.68689	-934.63605	434.39844	1633.92126	-1086.34558	318.24747	1607.50208	-958.65588	300.74295	1596.33447	-1037.36499	299.39899	1442.07727	-1033.45569	263.10159	1112.00061	-1024.49426	408.11761	1362.73425	-1033.55786	448.40265	1188.75989	-973.16229	214.87418	1269.47131	-1190.14111	370.46747	1401.53394	-1270.92065	411.16852	1207.43701	-1289.90759	437.99524	1098.63416	-1315.35583	535.86334	986.36011	-1276.89026	653.75098	931.95386	-1309.56641	606.92749	889.82300	-1316.28894	688.58807	853.06781	-869.56561	340.90634	1390.06885	-794.61176	273.92245	1194.73071	-781.85016	270.84344	1072.59729	-761.68207	264.13049	952.74158	-782.76025	302.06638	803.22278	-750.08002	244.20859	815.98621	-743.06793	265.71240	733.97589	-1138.38074	441.73633	952.80511	-917.51862	442.38483	960.73077	-1108.66016	283.30518	979.42255	-940.09894	290.52762	978.21771	-1188.37561	347.05759	639.18732	-1164.18176	320.60977	476.52191	-1150.44128	225.45277	235.60936	-1102.75647	179.66440	69.02011	-1057.47302	136.28107	59.92604	-1099.90210	320.77130	33.91187	-854.52380	473.78708	637.42554	-878.24231	524.52075	521.93073	-883.11987	517.08405	258.59601	-925.26929	535.35870	73.25890	-976.11969	504.84833	47.39429	-910.30450	687.50690	46.42931	-1018.00018	349.53329	1694.73657																														 
114	1.130	-1063.18103	464.58990	1648.10486	-933.69958	445.17575	1632.05737	-1085.72546	329.52185	1605.73938	-958.09308	311.59595	1594.41638	-1036.93335	310.47360	1440.39246	-1032.73767	273.89606	1110.32971	-1023.90466	419.37961	1360.94226	-1033.12146	459.57794	1186.91431	-973.32452	226.98212	1267.22754	-1189.63477	381.80576	1399.87927	-1270.19409	423.06964	1205.95154	-1289.30627	450.68042	1097.47314	-1314.17664	551.23877	987.77368	-1274.99402	670.48828	937.10413	-1307.78845	625.31287	893.47577	-1314.11902	708.06976	859.42493	-869.06403	351.81430	1388.29797	-794.45282	282.40735	1193.64087	-781.70648	278.15048	1071.63623	-761.81830	270.28741	951.72003	-781.92303	306.50339	801.91022	-750.07166	248.40939	815.26367	-742.95911	268.41534	732.98859	-1137.87793	452.47443	950.96735	-917.09717	453.82800	958.86713	-1107.93701	293.53992	977.77344	-939.28827	301.78104	976.47760	-1188.21753	355.07407	638.06451	-1164.05798	326.84686	475.57654	-1150.55371	228.21373	235.81654	-1102.85156	180.21819	69.85088	-1057.59399	136.61708	61.22783	-1099.96130	320.87149	33.78823	-854.43219	480.30405	633.22729	-878.93823	531.93335	518.07330	-883.05603	536.74036	255.82596	-924.62323	565.27094	71.55656	-975.14343	535.10895	45.47449	-910.67755	718.80444	50.31693	-1017.16779	360.48987	1692.93884																														 
115	1.140	-1062.16333	475.74658	1646.42297	-932.69043	456.11826	1630.32141	-1085.05396	340.80966	1603.87390	-957.47516	322.64984	1592.31848	-1036.42078	321.94711	1438.52856	-1032.02576	284.99878	1108.52612	-1023.31970	430.75864	1359.08691	-1032.62939	470.72720	1184.99707	-973.17621	238.12538	1265.39551	-1189.07629	393.21729	1398.16162	-1269.90808	435.10858	1204.52917	-1288.70227	463.23740	1096.21118	-1312.88550	566.25909	988.95551	-1272.94312	686.65436	941.94208	-1305.88245	643.03027	896.92651	-1311.80078	726.93616	865.51288	-868.48004	362.87173	1386.46301	-794.59821	291.68298	1192.39160	-781.57605	285.75647	1070.54065	-761.60199	276.38531	950.72040	-781.00409	311.37152	800.50635	-749.96667	252.97240	814.53662	-742.51154	272.15704	732.09412	-1137.23218	463.66702	949.23297	-916.54840	465.41168	956.88385	-1107.12695	304.33853	975.92163	-938.38556	313.21518	974.65479	-1188.05371	363.44653	636.93433	-1163.94141	333.26703	474.63666	-1150.72742	230.99280	236.14372	-1103.02844	180.73114	70.79240	-1057.80957	137.01535	62.70748	-1100.00598	320.99420	33.66681	-853.72314	487.57758	629.34045	-879.45032	539.63904	514.36230	-882.93146	555.65240	253.64168	-924.19855	593.24158	70.83675	-974.45892	563.41382	43.81934	-911.78485	748.06738	54.85404	-1016.32904	371.39984	1690.99072																														 
